<svg aria-hidden="true" style="position: absolute; width: 0; height: 0; overflow: hidden;" version="1.1" xmlns="http://www.w3.org/2000/svg" xmlns:xlink="http://www.w3.org/1999/xlink">
<defs>
<symbol id="icon-Logo_Agro" viewBox="0 0 100 32">
<path fill="#ffd600" style="fill: var(--color1, #ffd600)" d="M50.786 4.628c-2.562 0-4.649 2.085-4.649 4.649s2.087 4.649 4.65 4.649c2.564 0 4.648-2.086 4.648-4.649 0-0.9-0.257-1.774-0.744-2.526-0.524-0.807-1.304-1.447-2.194-1.799-0.544-0.215-1.119-0.325-1.711-0.325zM50.787 15.226c-3.281 0-5.949-2.668-5.949-5.949s2.668-5.95 5.949-5.95c0.755 0 1.49 0.141 2.187 0.416 1.157 0.458 2.128 1.253 2.807 2.3 0.625 0.963 0.956 2.082 0.956 3.234 0 3.281-2.67 5.949-5.95 5.949z"></path>
<path fill="#216a61" style="fill: var(--color2, #216a61)" d="M43.72 11.373c-0.895 0-0.895-0.376-0.895-0.578 0-0.196 0-0.605 0.818-0.605h1.195v0.23c0 0.343-0.059 0.573-0.175 0.686-0.23 0.224-0.519 0.267-0.944 0.267zM43.867 6.553c-0.642 0-1.124 0.124-1.565 0.404-0.311 0.203-0.668 0.488-0.668 0.884 0 0.227 0.089 0.366 0.186 0.482 0.12 0.132 0.301 0.209 0.495 0.209 0.116 0 0.347-0.030 0.562-0.231 0.288-0.26 0.508-0.384 0.985-0.384 0.816 0 0.977 0.328 0.977 0.894v0.094h-1.281c-1.333 0-2.195 0.744-2.195 1.894 0 0.515 0.184 1.001 0.507 1.336 0.406 0.415 0.936 0.593 1.769 0.593 0.559 0 0.972-0.093 1.34-0.318 0.128 0.184 0.352 0.296 0.594 0.296 0.263 0 0.495-0.125 0.62-0.333 0.112-0.183 0.121-0.34 0.121-0.543v-3.144c0-1.376-0.868-2.134-2.445-2.134z"></path>
<path fill="#216a61" style="fill: var(--color2, #216a61)" d="M58.745 8.902h-2.101c0.022-0.142 0.056-0.257 0.115-0.403 0.146-0.363 0.504-0.586 0.935-0.586 0.435 0 0.784 0.22 0.936 0.587 0.059 0.147 0.093 0.259 0.115 0.402zM60.029 9.981c0.21-0.209 0.21-0.485 0.21-0.605-0.011-1.715-1.009-2.822-2.544-2.822-1.575 0-2.553 1.183-2.553 3.087 0 1.963 0.98 3.088 2.691 3.088 0.584 0 1.119-0.126 1.512-0.361 0.485-0.297 0.719-0.592 0.719-0.902 0-0.366-0.317-0.686-0.68-0.686-0.248 0-0.415 0.123-0.594 0.273-0.296 0.253-0.667 0.306-0.926 0.306-0.728 0-1.14-0.395-1.23-1.174h2.804c0.153 0 0.385 0 0.591-0.204z"></path>
<path fill="#216a61" style="fill: var(--color2, #216a61)" d="M63.456 11.41c-0.132-0.082-0.292-0.118-0.538-0.118-0.194 0-0.365-0.034-0.365-0.437v-5.011c0-0.203-0.009-0.361-0.122-0.546-0.13-0.208-0.36-0.331-0.619-0.331s-0.489 0.125-0.62 0.334c-0.11 0.18-0.118 0.34-0.118 0.543v5.040c0 1.065 0.684 1.78 1.703 1.78h0.142c0.234 0 0.398-0.035 0.541-0.121 0.196-0.127 0.305-0.328 0.305-0.565s-0.113-0.445-0.308-0.567z"></path>
<path fill="#216a61" style="fill: var(--color2, #216a61)" d="M69.374 7.913c0.154 0 0.32-0.009 0.46-0.101 0.194-0.113 0.301-0.308 0.301-0.547s-0.106-0.435-0.286-0.538c-0.156-0.101-0.321-0.109-0.476-0.109h-0.449v-0.807c0-0.203-0.010-0.361-0.122-0.548-0.13-0.205-0.361-0.328-0.618-0.328-0.258 0-0.49 0.123-0.62 0.331-0.11 0.182-0.12 0.341-0.12 0.545v0.807h-0.032c-0.157 0-0.322 0.009-0.465 0.101-0.194 0.112-0.301 0.307-0.301 0.546s0.107 0.433 0.289 0.54c0.155 0.1 0.32 0.108 0.477 0.108h0.032v2.971c0 1.065 0.684 1.78 1.703 1.78h0.142c0.234 0 0.397-0.035 0.539-0.121 0.197-0.127 0.305-0.328 0.305-0.565s-0.113-0.445-0.306-0.567c-0.133-0.082-0.293-0.118-0.538-0.118-0.193 0-0.366-0.034-0.366-0.437v-2.942h0.449z"></path>
<path fill="#216a61" style="fill: var(--color2, #216a61)" d="M74.093 8.902h-2.1c0.021-0.144 0.057-0.257 0.114-0.403 0.147-0.363 0.505-0.586 0.937-0.586 0.434 0 0.784 0.22 0.935 0.586 0.059 0.146 0.093 0.26 0.115 0.403zM74.734 10.78c-0.25 0-0.409 0.117-0.594 0.272-0.299 0.252-0.67 0.306-0.928 0.306-0.728 0-1.14-0.395-1.229-1.174h2.804c0.154 0 0.387 0 0.59-0.203 0.211-0.21 0.211-0.486 0.211-0.606-0.015-1.715-1.012-2.822-2.544-2.822-1.576 0-2.554 1.183-2.554 3.087 0 1.963 0.98 3.088 2.69 3.088 0.585 0 1.122-0.126 1.514-0.361 0.308-0.19 0.719-0.491 0.719-0.902 0-0.366-0.318-0.686-0.679-0.686z"></path>
<path fill="#216a61" style="fill: var(--color2, #216a61)" d="M35.17 7.913c0.156 0 0.32-0.009 0.461-0.101 0.194-0.113 0.301-0.308 0.301-0.547s-0.107-0.435-0.285-0.538c-0.155-0.101-0.32-0.109-0.477-0.109h-0.448v-0.807c0-0.203-0.009-0.361-0.122-0.548-0.129-0.205-0.361-0.328-0.618-0.328s-0.488 0.123-0.619 0.331c-0.111 0.182-0.12 0.341-0.12 0.545v0.807h-0.032c-0.156 0-0.323 0.009-0.465 0.101-0.194 0.112-0.3 0.307-0.3 0.546s0.107 0.433 0.289 0.54c0.155 0.1 0.321 0.108 0.477 0.108h0.032v2.971c0 1.065 0.684 1.78 1.704 1.78h0.141c0.235 0 0.398-0.035 0.54-0.121 0.196-0.127 0.305-0.328 0.305-0.565s-0.112-0.445-0.306-0.567c-0.131-0.082-0.293-0.118-0.538-0.118-0.193 0-0.366-0.034-0.366-0.437v-2.942h0.448z"></path>
<path fill="#216a61" style="fill: var(--color2, #216a61)" d="M65.863 5.685c0 0.419-0.34 0.757-0.757 0.757-0.419 0-0.758-0.339-0.758-0.757 0-0.418 0.339-0.757 0.758-0.757 0.418 0 0.757 0.34 0.757 0.757z"></path>
<path fill="#216a61" style="fill: var(--color2, #216a61)" d="M65.106 6.934c-0.257 0-0.488 0.124-0.619 0.333-0.111 0.181-0.12 0.34-0.12 0.544v4.020c0 0.206 0.009 0.364 0.121 0.544 0.128 0.207 0.36 0.33 0.618 0.33 0.261 0 0.492-0.124 0.62-0.33 0.11-0.181 0.12-0.339 0.12-0.544v-4.020c0-0.204-0.010-0.364-0.12-0.546-0.13-0.208-0.361-0.331-0.62-0.331z"></path>
<path fill="#216a61" style="fill: var(--color2, #216a61)" d="M40.723 6.816c-0.342-0.213-0.695-0.308-1.146-0.308s-0.885 0.131-1.235 0.362c-0.003-0.004-0.006-0.010-0.008-0.014-0.127-0.205-0.364-0.332-0.619-0.332-0.26 0-0.491 0.123-0.622 0.336-0.11 0.185-0.12 0.341-0.12 0.542v4.385c0 0.204 0.009 0.362 0.122 0.543 0.125 0.208 0.357 0.333 0.619 0.333 0.261 0 0.492-0.125 0.618-0.331 0.114-0.183 0.123-0.341 0.123-0.544v-2.783c0-0.668 0.374-1.1 0.952-1.1 0.174 0 0.339 0.048 0.5 0.144 0.201 0.116 0.357 0.198 0.547 0.198 0.194 0 0.383-0.080 0.516-0.216 0.133-0.134 0.213-0.328 0.213-0.518 0-0.4-0.345-0.62-0.46-0.694z"></path>
<path fill="#216a61" style="fill: var(--color2, #216a61)" d="M55.979 0.303c-0.515 0-0.666 0.465-0.715 0.615l-4.415 9.415-1.563-3.217c-0.149-0.228-0.286-0.617-0.716-0.615-0.304 0.002-0.655 0.269-0.747 0.535-0.080 0.223-0.031 0.432 0.029 0.613l2.004 4.073c0.075 0.22 0.31 0.668 0.484 0.812 0.145 0.114 0.31 0.171 0.509 0.171 0.191 0 0.361-0.057 0.517-0.179 0.176-0.151 0.381-0.551 0.445-0.737l4.821-10.418c0.062-0.187 0.108-0.389 0.029-0.609-0.098-0.272-0.379-0.462-0.682-0.462z"></path>
<path fill="#216a61" style="fill: var(--color2, #216a61)" d="M43.224 25.11l-1.723-4.375-1.745 4.375h3.469zM39.468 15.654h4.132l6.584 15.577h-4.596l-1.104-2.785h-5.988l-1.106 2.785h-4.485l6.562-15.577z"></path>
<path fill="#216a61" style="fill: var(--color2, #216a61)" d="M50.191 23.542v-0.045c0-4.507 3.535-8.042 8.308-8.042 2.718 0 4.64 0.818 6.276 2.232l-2.518 3.049c-1.106-0.928-2.188-1.458-3.734-1.458-2.232 0-3.955 1.855-3.955 4.219v0.045c0 2.519 1.745 4.309 4.197 4.309 1.061 0 1.857-0.222 2.476-0.642v-1.877h-3.029v-3.138h7.094v6.937c-1.635 1.37-3.889 2.409-6.718 2.409-4.816 0-8.396-3.315-8.396-7.999z"></path>
<path fill="#216a61" style="fill: var(--color2, #216a61)" d="M74.832 23.188c1.437 0 2.299-0.707 2.299-1.834v-0.044c0-1.237-0.906-1.857-2.32-1.857h-2.828v3.734h2.849zM67.696 15.764h7.313c2.365 0 4 0.618 5.038 1.657 0.906 0.906 1.37 2.078 1.37 3.602v0.044c0 2.387-1.26 3.956-3.182 4.774l3.69 5.391h-4.927l-3.116-4.684h-1.9v4.684h-4.287v-15.467z"></path>
<path fill="#216a61" style="fill: var(--color2, #216a61)" d="M95.343 23.542v-0.045c0-2.253-1.591-4.176-3.955-4.176-2.366 0-3.934 1.901-3.934 4.132v0.044c0 2.233 1.614 4.177 3.977 4.177 2.342 0 3.912-1.9 3.912-4.132zM83.079 23.542v-0.045c0-4.441 3.58-8.042 8.352-8.042s8.309 3.557 8.309 7.998v0.044c0 4.441-3.579 8.044-8.352 8.044s-8.309-3.557-8.309-7.999z"></path>
<path fill="#ffd600" style="fill: var(--color1, #ffd600)" d="M24.275 7.267c0.156 0 0.309-0.065 0.421-0.175 0.111-0.112 0.175-0.264 0.175-0.42s-0.064-0.311-0.175-0.423c-0.112-0.11-0.265-0.175-0.421-0.175-0.157 0-0.311 0.065-0.421 0.175-0.111 0.111-0.175 0.266-0.175 0.423s0.064 0.308 0.175 0.42c0.11 0.11 0.264 0.175 0.421 0.175z"></path>
<path fill="#ffd600" style="fill: var(--color1, #ffd600)" d="M17.485 24.648c-0.185-0.273-0.555-0.345-0.826-0.161-2.549 1.722-4.701 3.875-6.397 6.401-0.184 0.272-0.111 0.643 0.162 0.827 0.103 0.068 0.219 0.1 0.333 0.1 0.191 0 0.38-0.093 0.495-0.262 1.61-2.399 3.653-4.444 6.074-6.077 0.272-0.185 0.344-0.556 0.16-0.828z"></path>
<path fill="#ffd600" style="fill: var(--color1, #ffd600)" d="M19.945 23.915c0.11-0.11 0.174-0.263 0.174-0.421 0-0.157-0.065-0.309-0.174-0.422s-0.264-0.174-0.421-0.174c-0.157 0-0.31 0.062-0.421 0.174s-0.175 0.265-0.175 0.422c0 0.158 0.064 0.311 0.175 0.421 0.111 0.111 0.264 0.175 0.421 0.175s0.311-0.064 0.421-0.175z"></path>
<path fill="#ffd600" style="fill: var(--color1, #ffd600)" d="M32.677 20.616c-0.845-0.109-1.695-0.153-2.544-0.168-0.069-0.028-0.143-0.045-0.221-0.045-0.356 0-0.708 0.030-1.062 0.046-0.099 0.004-0.196 0.008-0.294 0.012-0.425 0.025-0.85 0.061-1.274 0.109-0.381 0.040-0.761 0.088-1.14 0.148-0.128 0.021-0.256 0.042-0.384 0.066-0.341 0.058-0.683 0.103-1.023 0.176-0.079 0.018-0.15 0.050-0.212 0.093-0.824 0.195-1.64 0.419-2.446 0.703-0.312 0.11-0.474 0.451-0.363 0.761 0.085 0.244 0.316 0.396 0.561 0.396 0.065 0 0.132-0.011 0.198-0.033 1.155-0.409 2.332-0.715 3.523-0.929 0.103-0.017 0.205-0.037 0.308-0.053 0.373-0.061 0.748-0.102 1.123-0.145 0.396-0.041 0.79-0.082 1.186-0.102 0.093-0.006 0.187-0.008 0.28-0.011 1.213-0.045 2.428 0.005 3.635 0.161 0.325 0.042 0.624-0.189 0.666-0.517 0.042-0.325-0.189-0.625-0.516-0.667z"></path>
<path fill="#ffd600" style="fill: var(--color1, #ffd600)" d="M30.765 25.165c-0.28 0.001-0.558 0.026-0.838 0.037-0.006 0-0.009-0.003-0.015-0.003-0.192 0-0.382 0.023-0.574 0.030-0.204 0.012-0.408 0.012-0.61 0.030-1.717 0.112-3.405 0.462-5.023 1.031-0.258 0.083-0.52 0.148-0.775 0.24-0.067 0.024-0.123 0.062-0.175 0.105-2.317 0.955-4.454 2.364-6.245 4.164-0.232 0.234-0.231 0.611 0.003 0.843 0.115 0.114 0.267 0.173 0.42 0.173 0.154 0 0.307-0.059 0.422-0.175 1.898-1.909 4.216-3.333 6.719-4.218 1.559-0.495 3.15-0.833 4.763-0.977 0.173-0.011 0.344-0.021 0.517-0.027 0.47-0.031 0.94-0.062 1.414-0.063 0.327-0.001 0.594-0.267 0.594-0.598 0-0.329-0.269-0.595-0.597-0.594z"></path>
<path fill="#216a61" style="fill: var(--color2, #216a61)" d="M13.172 13.563l-2.152-2.165h5.132l2.153 2.165h-5.133zM7.684 13.563l1.904-1.917 1.903 1.917h-3.807zM19.141 18.104c0.445-0.196 0.864-0.35 1.191-0.463v-3.484c0-0.164-0.067-0.312-0.173-0.419l-3.336-3.358c-0.112-0.111-0.265-0.175-0.422-0.175h-6.813c-0.159 0-0.311 0.064-0.423 0.175l-3.337 3.358c-0.106 0.108-0.173 0.255-0.173 0.419v2.276l1.191 0.245v-1.926h5.482v3.749c0.444 0.204 0.84 0.403 1.192 0.588v-4.338h5.621v3.352z"></path>
<path fill="#ffd600" style="fill: var(--color1, #ffd600)" d="M24.275 8.338c-0.33 0-0.597 0.267-0.597 0.597v4.561c-1.391-1.47-2.144-3.25-2.144-5.118 0-2.118 0.969-4.123 2.741-5.695 1.771 1.572 2.74 3.577 2.74 5.695 0 1.867-0.754 3.647-2.144 5.118v-4.561c0-0.33-0.267-0.597-0.596-0.597zM3.813 7.863c-0.328 0-0.597 0.266-0.597 0.596v3.965c-0.866-1.028-1.33-2.232-1.33-3.488 0-1.52 0.681-2.963 1.927-4.11 1.246 1.147 1.926 2.59 1.926 4.11 0 1.256-0.466 2.46-1.33 3.488v-3.965c0-0.33-0.267-0.596-0.596-0.596zM33.773 16.304c-1.682-0.297-3.385-0.387-5.090-0.312-0.021 0-0.040 0.001-0.061 0.002-0.424 0.020-0.848 0.046-1.272 0.088-0.831 0.077-1.658 0.191-2.478 0.341v-1.288c2.154-1.822 3.336-4.212 3.336-6.756 0-2.63-1.264-5.093-3.559-6.939-0.217-0.175-0.528-0.175-0.746 0-2.295 1.846-3.559 4.309-3.559 6.939 0 2.544 1.184 4.934 3.336 6.756v1.532c-0.847 0.191-1.681 0.436-2.508 0.707l0.002 0.018c0 0-0.147 0.036-0.399 0.112-0.145 0.049-0.292 0.090-0.435 0.143v-0.002c-0.26 0.088-0.567 0.199-0.917 0.341-0.079 0.032-0.174 0.073-0.274 0.119v0.005c-0.108 0.045-0.213 0.097-0.32 0.144-1.323 0.626-3.582 1.843-3.582 1.843-0.563-0.346-1.136-0.668-1.72-0.971v-0.008c-0.36-0.189-0.754-0.384-1.192-0.584v0.008c-0.276-0.127-0.554-0.248-0.834-0.368 0 0-0.59-0.244-1.513-0.566-2.189-0.739-4.084-1.121-4.572-1.214-0.335-0.059-0.67-0.116-1.006-0.161v-2.125c1.628-1.4 2.523-3.228 2.523-5.174 0-2.035-0.976-3.938-2.746-5.36-0.217-0.177-0.527-0.177-0.746 0-1.77 1.422-2.745 3.325-2.745 5.36 0 1.946 0.893 3.774 2.522 5.174v1.987c-0.868-0.081-1.743-0.122-2.621-0.122-0.329 0-0.596 0.268-0.596 0.595 0 0.329 0.266 0.595 0.596 0.595 4.764 0 9.424 1.263 13.532 3.653-0.984 0.67-1.924 1.399-2.815 2.186-3.327-1.697-7.027-2.59-10.717-2.59-0.329 0-0.596 0.267-0.596 0.596 0 0.328 0.266 0.596 0.596 0.596 3.358 0 6.724 0.781 9.781 2.264-0.905 0.876-1.751 1.814-2.533 2.806-2.318-0.973-4.755-1.466-7.248-1.466-0.329 0-0.596 0.268-0.596 0.596 0 0.33 0.266 0.596 0.596 0.596 2.235 0 4.418 0.424 6.506 1.258-0.412 0.572-0.803 1.16-1.171 1.763l-0.908 1.487c-0.172 0.282-0.084 0.647 0.197 0.82 0.098 0.058 0.204 0.086 0.31 0.086 0.201 0 0.397-0.101 0.509-0.286l0.909-1.488c0.473-0.776 0.985-1.522 1.53-2.239 0.020-0.023 0.041-0.048 0.059-0.076 3.92-5.112 9.595-8.66 15.855-9.99 0.002 0 0.004 0 0.004 0 0.619-0.131 1.243-0.233 1.871-0.321 0.344-0.053 0.691-0.090 1.036-0.127 0.863-0.087 1.733-0.134 2.608-0.134 0.013 0 0.023-0.006 0.036-0.008 1.212 0.013 2.421 0.119 3.617 0.33 0.325 0.057 0.633-0.159 0.69-0.484s-0.159-0.633-0.483-0.69z"></path>
</symbol>


</defs>
</svg>