<svg aria-hidden="true" style="position: absolute; width: 0; height: 0; overflow: hidden;" version="1.1" xmlns="http://www.w3.org/2000/svg" xmlns:xlink="http://www.w3.org/1999/xlink">
<defs>
<symbol id="icon-burger-menu" viewBox="0 0 32 32">
<path d="M5.333 6.667c-0.736 0-1.333 0.597-1.333 1.333s0.597 1.333 1.333 1.333h21.333c0.736 0 1.333-0.597 1.333-1.333s-0.597-1.333-1.333-1.333h-21.333zM9.333 16c0-0.736 0.597-1.333 1.333-1.333h16c0.736 0 1.333 0.597 1.333 1.333s-0.597 1.333-1.333 1.333h-16c-0.736 0-1.333-0.597-1.333-1.333zM17.333 24c0-0.736 0.597-1.333 1.333-1.333h8c0.736 0 1.333 0.597 1.333 1.333s-0.597 1.333-1.333 1.333h-8c-0.736 0-1.333-0.597-1.333-1.333z"></path>
</symbol>

</defs>
</svg>